<mxfile host="app.diagrams.net" modified="2022-04-14T09:01:58.392Z" agent="5.0 (Macintosh; Intel Mac OS X 10_15_7) AppleWebKit/537.36 (KHTML, like Gecko) Chrome/100.0.4896.75 Safari/537.36" etag="WDrBlgtzBjsNT4p7XwLy" version="17.4.0" type="github">
  <diagram id="PYjZGdKjU_AICDj0z-Zk" name="第 1 页">
    <mxGraphModel dx="2066" dy="1154" grid="1" gridSize="10" guides="1" tooltips="1" connect="1" arrows="1" fold="1" page="1" pageScale="1" pageWidth="2339" pageHeight="3300" math="0" shadow="0">
      <root>
        <mxCell id="0" />
        <mxCell id="1" parent="0" />
        <mxCell id="ab99bcFO6LtGtf1AsuOx-2" value="" style="line;strokeWidth=2;direction=south;html=1;" vertex="1" parent="1">
          <mxGeometry x="400" y="40" width="10" height="750" as="geometry" />
        </mxCell>
        <mxCell id="ab99bcFO6LtGtf1AsuOx-3" value="" style="line;strokeWidth=4;html=1;perimeter=backbonePerimeter;points=[];outlineConnect=0;" vertex="1" parent="1">
          <mxGeometry x="360" y="370" width="760" height="10" as="geometry" />
        </mxCell>
        <mxCell id="ab99bcFO6LtGtf1AsuOx-4" value="" style="line;strokeWidth=4;html=1;perimeter=backbonePerimeter;points=[];outlineConnect=0;" vertex="1" parent="1">
          <mxGeometry x="360" y="580" width="760" height="10" as="geometry" />
        </mxCell>
        <mxCell id="ab99bcFO6LtGtf1AsuOx-6" value="研发态" style="text;html=1;strokeColor=none;fillColor=none;align=center;verticalAlign=middle;whiteSpace=wrap;rounded=0;" vertex="1" parent="1">
          <mxGeometry x="340" y="250" width="60" height="30" as="geometry" />
        </mxCell>
        <mxCell id="ab99bcFO6LtGtf1AsuOx-7" value="编译态" style="text;html=1;strokeColor=none;fillColor=none;align=center;verticalAlign=middle;whiteSpace=wrap;rounded=0;" vertex="1" parent="1">
          <mxGeometry x="330" y="480" width="60" height="30" as="geometry" />
        </mxCell>
        <mxCell id="ab99bcFO6LtGtf1AsuOx-9" value="运行态" style="text;html=1;strokeColor=none;fillColor=none;align=center;verticalAlign=middle;whiteSpace=wrap;rounded=0;" vertex="1" parent="1">
          <mxGeometry x="330" y="680" width="60" height="30" as="geometry" />
        </mxCell>
        <mxCell id="ab99bcFO6LtGtf1AsuOx-25" style="edgeStyle=orthogonalEdgeStyle;rounded=0;orthogonalLoop=1;jettySize=auto;html=1;exitX=0;exitY=0.5;exitDx=0;exitDy=0;entryX=1;entryY=0.25;entryDx=0;entryDy=0;" edge="1" parent="1" source="ab99bcFO6LtGtf1AsuOx-20" target="ab99bcFO6LtGtf1AsuOx-22">
          <mxGeometry relative="1" as="geometry" />
        </mxCell>
        <mxCell id="ab99bcFO6LtGtf1AsuOx-20" value="物料市场" style="rounded=0;whiteSpace=wrap;html=1;" vertex="1" parent="1">
          <mxGeometry x="970" y="210" width="120" height="30" as="geometry" />
        </mxCell>
        <mxCell id="ab99bcFO6LtGtf1AsuOx-24" style="edgeStyle=orthogonalEdgeStyle;rounded=0;orthogonalLoop=1;jettySize=auto;html=1;exitX=0;exitY=0.5;exitDx=0;exitDy=0;entryX=1;entryY=0.75;entryDx=0;entryDy=0;" edge="1" parent="1" source="ab99bcFO6LtGtf1AsuOx-21" target="ab99bcFO6LtGtf1AsuOx-22">
          <mxGeometry relative="1" as="geometry" />
        </mxCell>
        <mxCell id="ab99bcFO6LtGtf1AsuOx-21" value="服务管理" style="rounded=0;whiteSpace=wrap;html=1;" vertex="1" parent="1">
          <mxGeometry x="970" y="260" width="120" height="30" as="geometry" />
        </mxCell>
        <mxCell id="ab99bcFO6LtGtf1AsuOx-27" style="edgeStyle=orthogonalEdgeStyle;rounded=0;orthogonalLoop=1;jettySize=auto;html=1;exitX=0.5;exitY=1;exitDx=0;exitDy=0;entryX=0.5;entryY=0;entryDx=0;entryDy=0;" edge="1" parent="1" source="ab99bcFO6LtGtf1AsuOx-22" target="ab99bcFO6LtGtf1AsuOx-23">
          <mxGeometry relative="1" as="geometry" />
        </mxCell>
        <mxCell id="ab99bcFO6LtGtf1AsuOx-22" value="IDE (可视化编辑器)" style="rounded=0;whiteSpace=wrap;html=1;" vertex="1" parent="1">
          <mxGeometry x="460" y="200" width="460" height="100" as="geometry" />
        </mxCell>
        <mxCell id="ab99bcFO6LtGtf1AsuOx-29" style="edgeStyle=orthogonalEdgeStyle;rounded=0;orthogonalLoop=1;jettySize=auto;html=1;exitX=0.5;exitY=1;exitDx=0;exitDy=0;entryX=0.5;entryY=0;entryDx=0;entryDy=0;" edge="1" parent="1" source="ab99bcFO6LtGtf1AsuOx-23" target="ab99bcFO6LtGtf1AsuOx-28">
          <mxGeometry relative="1" as="geometry" />
        </mxCell>
        <mxCell id="ab99bcFO6LtGtf1AsuOx-23" value="JsonSchema" style="rounded=0;whiteSpace=wrap;html=1;" vertex="1" parent="1">
          <mxGeometry x="460" y="330" width="460" height="30" as="geometry" />
        </mxCell>
        <mxCell id="ab99bcFO6LtGtf1AsuOx-33" style="edgeStyle=orthogonalEdgeStyle;rounded=0;orthogonalLoop=1;jettySize=auto;html=1;exitX=0.5;exitY=1;exitDx=0;exitDy=0;" edge="1" parent="1" source="ab99bcFO6LtGtf1AsuOx-28" target="ab99bcFO6LtGtf1AsuOx-30">
          <mxGeometry relative="1" as="geometry" />
        </mxCell>
        <mxCell id="ab99bcFO6LtGtf1AsuOx-28" value="构建打包" style="rounded=0;whiteSpace=wrap;html=1;" vertex="1" parent="1">
          <mxGeometry x="460" y="400" width="460" height="100" as="geometry" />
        </mxCell>
        <mxCell id="ab99bcFO6LtGtf1AsuOx-34" style="edgeStyle=orthogonalEdgeStyle;rounded=0;orthogonalLoop=1;jettySize=auto;html=1;exitX=0.5;exitY=1;exitDx=0;exitDy=0;" edge="1" parent="1" source="ab99bcFO6LtGtf1AsuOx-30" target="ab99bcFO6LtGtf1AsuOx-31">
          <mxGeometry relative="1" as="geometry" />
        </mxCell>
        <mxCell id="ab99bcFO6LtGtf1AsuOx-30" value="html、js" style="rounded=0;whiteSpace=wrap;html=1;" vertex="1" parent="1">
          <mxGeometry x="460" y="540" width="460" height="30" as="geometry" />
        </mxCell>
        <mxCell id="ab99bcFO6LtGtf1AsuOx-35" style="edgeStyle=orthogonalEdgeStyle;rounded=0;orthogonalLoop=1;jettySize=auto;html=1;exitX=0.5;exitY=1;exitDx=0;exitDy=0;entryX=0.5;entryY=0;entryDx=0;entryDy=0;" edge="1" parent="1" source="ab99bcFO6LtGtf1AsuOx-31" target="ab99bcFO6LtGtf1AsuOx-32">
          <mxGeometry relative="1" as="geometry" />
        </mxCell>
        <mxCell id="ab99bcFO6LtGtf1AsuOx-31" value="运行容器" style="rounded=0;whiteSpace=wrap;html=1;" vertex="1" parent="1">
          <mxGeometry x="460" y="600" width="460" height="100" as="geometry" />
        </mxCell>
        <mxCell id="ab99bcFO6LtGtf1AsuOx-32" value="可访问的 url" style="rounded=0;whiteSpace=wrap;html=1;" vertex="1" parent="1">
          <mxGeometry x="460" y="740" width="460" height="30" as="geometry" />
        </mxCell>
        <mxCell id="ab99bcFO6LtGtf1AsuOx-36" value="" style="line;strokeWidth=4;html=1;perimeter=backbonePerimeter;points=[];outlineConnect=0;" vertex="1" parent="1">
          <mxGeometry x="360" y="170" width="760" height="10" as="geometry" />
        </mxCell>
        <mxCell id="ab99bcFO6LtGtf1AsuOx-37" value="" style="rounded=0;whiteSpace=wrap;html=1;" vertex="1" parent="1">
          <mxGeometry x="460" y="50" width="460" height="100" as="geometry" />
        </mxCell>
        <mxCell id="ab99bcFO6LtGtf1AsuOx-38" value="开发者&lt;br&gt;中心" style="text;html=1;strokeColor=none;fillColor=none;align=center;verticalAlign=middle;whiteSpace=wrap;rounded=0;" vertex="1" parent="1">
          <mxGeometry x="340" y="90" width="60" height="30" as="geometry" />
        </mxCell>
        <mxCell id="ab99bcFO6LtGtf1AsuOx-42" style="edgeStyle=orthogonalEdgeStyle;rounded=0;orthogonalLoop=1;jettySize=auto;html=1;exitX=1;exitY=0.5;exitDx=0;exitDy=0;entryX=0;entryY=0.5;entryDx=0;entryDy=0;" edge="1" parent="1" source="ab99bcFO6LtGtf1AsuOx-39" target="ab99bcFO6LtGtf1AsuOx-40">
          <mxGeometry relative="1" as="geometry" />
        </mxCell>
        <mxCell id="ab99bcFO6LtGtf1AsuOx-39" value="租户入驻" style="rounded=0;whiteSpace=wrap;html=1;" vertex="1" parent="1">
          <mxGeometry x="480" y="85" width="120" height="30" as="geometry" />
        </mxCell>
        <mxCell id="ab99bcFO6LtGtf1AsuOx-43" style="edgeStyle=orthogonalEdgeStyle;rounded=0;orthogonalLoop=1;jettySize=auto;html=1;exitX=1;exitY=0.5;exitDx=0;exitDy=0;entryX=0;entryY=0.5;entryDx=0;entryDy=0;" edge="1" parent="1" source="ab99bcFO6LtGtf1AsuOx-40" target="ab99bcFO6LtGtf1AsuOx-41">
          <mxGeometry relative="1" as="geometry" />
        </mxCell>
        <mxCell id="ab99bcFO6LtGtf1AsuOx-40" value="创建应用" style="rounded=0;whiteSpace=wrap;html=1;" vertex="1" parent="1">
          <mxGeometry x="630" y="85" width="120" height="30" as="geometry" />
        </mxCell>
        <mxCell id="ab99bcFO6LtGtf1AsuOx-41" value="应用配置" style="rounded=0;whiteSpace=wrap;html=1;" vertex="1" parent="1">
          <mxGeometry x="780" y="85" width="120" height="30" as="geometry" />
        </mxCell>
        <mxCell id="ab99bcFO6LtGtf1AsuOx-44" value="沙箱环境" style="rounded=0;whiteSpace=wrap;html=1;" vertex="1" parent="1">
          <mxGeometry x="490" y="635" width="120" height="30" as="geometry" />
        </mxCell>
        <mxCell id="ab99bcFO6LtGtf1AsuOx-45" value="生产环境" style="rounded=0;whiteSpace=wrap;html=1;" vertex="1" parent="1">
          <mxGeometry x="750" y="635" width="120" height="30" as="geometry" />
        </mxCell>
      </root>
    </mxGraphModel>
  </diagram>
</mxfile>
